<?xml version="1.0" encoding="UTF-8"?>
<!DOCTYPE svg PUBLIC "-//W3C//DTD SVG 1.1//EN" "http://www.w3.org/Graphics/SVG/1.1/DTD/svg11.dtd">
<!-- Creator: CorelDRAW 2021.5 -->
<svg xmlns="http://www.w3.org/2000/svg" xml:space="preserve" width="3.55018in" height="1.5041in" version="1.1" style="shape-rendering:geometricPrecision; text-rendering:geometricPrecision; image-rendering:optimizeQuality; fill-rule:evenodd; clip-rule:evenodd"
viewBox="0 0 716.35 303.49"
 xmlns:xlink="http://www.w3.org/1999/xlink"
 xmlns:xodm="http://www.corel.com/coreldraw/odm/2003">
 <defs>
  <style type="text/css">
   <![CDATA[
    .fil0 {fill:#006633}
    .fil1 {fill:#4A7D33}
    .fil2 {fill:#669933}
    .fil3 {fill:black;fill-rule:nonzero}
    .fil4 {fill:#006633;fill-rule:nonzero}
   ]]>
  </style>
 </defs>
 <g id="Layer_x0020_1">
  <metadata id="CorelCorpID_0Corel-Layer"/>
  <g id="_2231546443520">
   <path class="fil0" d="M122.45 51.41c-8.2,-10.34 -15.45,-16.03 -18.4,-14.81 -2.94,1.22 -4.05,10.36 -2.53,23.48 0.41,3.59 1.04,7.45 1.88,11.52 3.53,3.06 7.06,6.33 10.54,9.81 6.12,6.12 11.59,12.42 16.38,18.62 -1,-7.77 -1.58,-16.09 -1.58,-24.75 0,-4.92 0.18,-9.73 0.52,-14.39 -2.28,-3.48 -4.57,-6.65 -6.82,-9.48zm10.86 52.58c1.78,2.43 3.45,4.83 5,7.19 6.38,9.66 10.91,18.63 13.44,25.72 2.53,-7.09 7.06,-16.06 13.44,-25.72 1.56,-2.36 3.23,-4.76 5,-7.19 1.34,-8.86 2.15,-18.55 2.15,-28.72 0,-3.71 -0.11,-7.37 -0.3,-10.94 -4.15,6.73 -8.18,14.45 -11.68,22.88 -1.56,3.77 -2.94,7.53 -4.16,11.23 -1.29,3.93 -2.38,7.77 -3.29,11.48l-2.33 0c-0.91,-3.71 -2,-7.56 -3.29,-11.48 -1.21,-3.7 -2.6,-7.46 -4.16,-11.23 -3.49,-8.43 -7.52,-16.14 -11.68,-22.88 -0.2,3.57 -0.3,7.22 -0.3,10.94 0,10.16 0.81,19.86 2.15,28.72zm39.87 -3.97c4.79,-6.2 10.26,-12.5 16.38,-18.62 3.48,-3.48 7.01,-6.75 10.54,-9.81 0.85,-4.07 1.47,-7.93 1.88,-11.52 1.51,-13.11 0.41,-22.26 -2.53,-23.48 -2.95,-1.22 -10.2,4.46 -18.4,14.81 -2.24,2.83 -4.54,6 -6.81,9.48 0.34,4.66 0.52,9.47 0.52,14.39 0,8.66 -0.58,16.98 -1.58,24.75zm-68.89 -24.43c1.83,7.7 4.43,16.01 7.92,24.44 1.56,3.77 3.24,7.41 5,10.88 1.87,3.7 3.82,7.19 5.79,10.44l-1.65 1.65c-3.25,-1.97 -6.75,-3.92 -10.45,-5.79 -3.47,-1.76 -7.11,-3.44 -10.88,-5 -8.43,-3.49 -16.74,-6.1 -24.44,-7.92 2.39,2.66 4.89,5.32 7.52,7.95 7.19,7.19 14.62,13.47 21.82,18.78 7.45,1.15 14.31,2.67 20.35,4.4 6.3,1.79 11.74,3.84 16.09,5.96 -2.11,-4.35 -4.16,-9.79 -5.96,-16.09 -1.72,-6.05 -3.25,-12.9 -4.4,-20.35 -5.31,-7.21 -11.59,-14.64 -18.78,-21.82 -2.63,-2.63 -5.28,-5.13 -7.95,-7.52zm5.12 58.62c1.04,0.72 2.08,1.42 3.1,2.1 11.16,7.37 21.33,12.21 28.64,14.28l0 2.31c-7.3,2.07 -17.47,6.92 -28.64,14.28 -1.03,0.68 -2.06,1.38 -3.1,2.1 5.49,-1 10.6,-2.2 15.22,-3.52 7.74,-2.21 14.09,-4.69 18.57,-7.1 1.87,-3.25 3.76,-5.61 5.52,-6.92 -1.77,-1.31 -3.65,-3.68 -5.52,-6.93 -4.48,-2.41 -10.83,-4.89 -18.57,-7.09 -4.63,-1.32 -9.73,-2.52 -15.22,-3.52zm-4.47 38.27c-7.21,5.31 -14.64,11.59 -21.82,18.78 -2.63,2.63 -5.13,5.28 -7.52,7.95 7.7,-1.83 16.01,-4.43 24.44,-7.92 3.77,-1.56 7.41,-3.24 10.88,-5 3.7,-1.87 7.19,-3.82 10.44,-5.79l1.65 1.65c-1.97,3.25 -3.92,6.75 -5.79,10.44 -1.76,3.47 -3.44,7.11 -5,10.88 -3.49,8.43 -6.1,16.74 -7.92,24.44 2.66,-2.39 5.32,-4.89 7.95,-7.52 7.19,-7.19 13.47,-14.62 18.78,-21.82 1.15,-7.45 2.67,-14.31 4.4,-20.35 1.79,-6.3 3.84,-11.74 5.96,-16.09 -4.35,2.12 -9.79,4.16 -16.09,5.96 -6.05,1.72 -12.9,3.24 -20.35,4.4zm29.28 21.61c0.72,-1.04 1.42,-2.08 2.1,-3.1 7.37,-11.16 12.21,-21.33 14.28,-28.64l2.31 0c2.07,7.3 6.92,17.47 14.28,28.64 0.68,1.03 1.38,2.06 2.1,3.1 -1,-5.49 -2.2,-10.6 -3.52,-15.22 -2.21,-7.74 -4.69,-14.09 -7.1,-18.57 -3.25,-1.87 -5.61,-3.76 -6.92,-5.52 -1.31,1.77 -3.68,3.65 -6.93,5.52 -2.41,4.48 -4.89,10.83 -7.1,18.57 -1.32,4.63 -2.52,9.73 -3.52,15.22zm21.59 -38.29c-0.72,-0.91 -1.42,-1.61 -2.09,-2.09 0.48,0.67 1.18,1.37 2.09,2.09zm-6.02 -2.09c-0.67,0.48 -1.37,1.18 -2.09,2.09 0.91,-0.72 1.61,-1.42 2.09,-2.09zm22.69 44.85c5.31,7.21 11.59,14.64 18.78,21.82 2.63,2.63 5.28,5.13 7.95,7.52 -1.83,-7.7 -4.43,-16.01 -7.92,-24.44 -1.56,-3.77 -3.24,-7.41 -5,-10.88 -1.87,-3.7 -3.82,-7.19 -5.79,-10.44l1.65 -1.65c3.25,1.97 6.75,3.92 10.44,5.79 3.47,1.76 7.11,3.44 10.88,5 8.43,3.49 16.74,6.1 24.44,7.92 -2.39,-2.66 -4.89,-5.32 -7.52,-7.95 -7.19,-7.19 -14.62,-13.47 -21.82,-18.78 -7.45,-1.15 -14.31,-2.67 -20.35,-4.4 -6.3,-1.8 -11.74,-3.84 -16.09,-5.96 2.12,4.35 4.16,9.79 5.96,16.09 1.72,6.05 3.24,12.9 4.4,20.35zm21.61 -29.28c-1.04,-0.72 -2.08,-1.42 -3.1,-2.1 -11.16,-7.37 -21.33,-12.21 -28.64,-14.28l0 -2.31c7.3,-2.07 17.47,-6.92 28.64,-14.28 1.03,-0.68 2.06,-1.38 3.1,-2.1 -5.49,1 -10.6,2.2 -15.22,3.52 -7.74,2.2 -14.09,4.69 -18.57,7.1 -1.87,3.25 -3.76,5.61 -5.52,6.93 1.77,1.31 3.65,3.67 5.52,6.93 4.48,2.41 10.83,4.89 18.57,7.1 4.63,1.32 9.73,2.52 15.22,3.52zm4.47 -38.27c7.21,-5.31 14.64,-11.59 21.82,-18.78 2.63,-2.63 5.13,-5.28 7.52,-7.95 -7.7,1.83 -16.01,4.43 -24.44,7.92 -3.77,1.56 -7.41,3.24 -10.88,5 -3.7,1.87 -7.19,3.82 -10.44,5.79l-1.65 -1.65c1.97,-3.25 3.92,-6.74 5.79,-10.44 1.76,-3.48 3.44,-7.11 5,-10.88 3.49,-8.43 6.1,-16.74 7.92,-24.44 -2.66,2.39 -5.32,4.89 -7.95,7.52 -7.19,7.19 -13.47,14.62 -18.78,21.82 -1.15,7.45 -2.67,14.31 -4.4,20.35 -1.8,6.3 -3.84,11.74 -5.96,16.09 4.35,-2.11 9.79,-4.16 16.09,-5.96 6.05,-1.72 12.9,-3.24 20.35,-4.4zm-29.28 -21.61c-0.72,1.04 -1.42,2.08 -2.1,3.1 -7.37,11.16 -12.21,21.33 -14.28,28.64l-2.31 0c-2.07,-7.3 -6.92,-17.47 -14.28,-28.64 -0.68,-1.03 -1.38,-2.06 -2.1,-3.1 1,5.49 2.2,10.6 3.52,15.22 2.21,7.74 4.69,14.09 7.1,18.57 3.25,1.87 5.61,3.76 6.93,5.52 1.31,-1.77 3.68,-3.65 6.93,-5.52 2.41,-4.48 4.89,-10.83 7.1,-18.57 1.32,-4.63 2.52,-9.73 3.52,-15.22zm-21.59 38.29c0.72,0.91 1.42,1.61 2.09,2.09 -0.48,-0.67 -1.18,-1.37 -2.09,-2.09zm6.02 2.09c0.67,-0.48 1.37,-1.18 2.09,-2.09 -0.91,0.72 -1.61,1.42 -2.09,2.09zm-82.11 -46.39c-4.07,-0.85 -7.93,-1.47 -11.52,-1.88 -13.11,-1.51 -22.26,-0.41 -23.48,2.53 -1.22,2.95 4.46,10.2 14.81,18.4 2.83,2.24 6,4.54 9.48,6.81 4.66,-0.34 9.47,-0.52 14.39,-0.52 8.66,0 16.98,0.58 24.75,1.58 -6.2,-4.79 -12.5,-10.26 -18.62,-16.38 -3.48,-3.48 -6.75,-7.01 -9.81,-10.54zm-7.26 28.06c6.73,4.15 14.45,8.18 22.88,11.68 3.77,1.56 7.53,2.94 11.23,4.16 3.93,1.29 7.77,2.38 11.48,3.29l0 2.33c-3.71,0.91 -7.56,2 -11.48,3.29 -3.7,1.21 -7.46,2.6 -11.23,4.16 -8.43,3.49 -16.14,7.52 -22.88,11.68 3.57,0.2 7.22,0.3 10.94,0.3 10.16,0 19.86,-0.81 28.72,-2.15 2.43,-1.78 4.83,-3.45 7.19,-5 9.66,-6.38 18.63,-10.91 25.72,-13.44 -7.09,-2.53 -16.06,-7.06 -25.72,-13.44 -2.36,-1.56 -4.76,-3.23 -7.19,-5 -8.86,-1.34 -18.55,-2.15 -28.72,-2.15 -3.71,0 -7.37,0.11 -10.94,0.3zm-3.45 42.78c-3.48,2.28 -6.65,4.57 -9.48,6.82 -10.34,8.2 -16.03,15.45 -14.81,18.4 1.22,2.94 10.36,4.05 23.48,2.53 3.59,-0.41 7.45,-1.04 11.52,-1.88 3.06,-3.53 6.33,-7.06 9.81,-10.54 6.12,-6.12 12.42,-11.59 18.62,-16.38 -7.77,1 -16.09,1.58 -24.75,1.58 -4.92,0 -9.73,-0.18 -14.39,-0.52zm42.51 57.66c-0.85,4.07 -1.47,7.93 -1.88,11.52 -1.51,13.11 -0.41,22.26 2.53,23.47 2.95,1.22 10.2,-4.46 18.4,-14.8 2.24,-2.83 4.54,-6 6.81,-9.48 -0.34,-4.66 -0.52,-9.47 -0.52,-14.39 0,-8.66 0.58,-16.98 1.58,-24.75 -4.79,6.2 -10.26,12.5 -16.38,18.62 -3.48,3.48 -7.01,6.75 -10.54,9.81zm28.06 7.26c4.15,-6.74 8.18,-14.45 11.68,-22.88 1.56,-3.77 2.94,-7.53 4.16,-11.23 1.29,-3.93 2.38,-7.77 3.29,-11.48l2.33 0c0.91,3.71 2,7.56 3.29,11.48 1.21,3.7 2.6,7.46 4.16,11.23 3.49,8.43 7.52,16.14 11.68,22.88 0.2,-3.57 0.3,-7.22 0.3,-10.94 0,-10.16 -0.81,-19.86 -2.15,-28.72 -1.78,-2.43 -3.45,-4.83 -5,-7.19 -6.38,-9.66 -10.91,-18.63 -13.44,-25.72 -2.53,7.09 -7.06,16.06 -13.44,25.72 -1.56,2.36 -3.23,4.76 -5,7.19 -1.34,8.86 -2.15,18.55 -2.15,28.72 0,3.71 0.11,7.37 0.3,10.94zm42.78 3.45c2.28,3.48 4.57,6.65 6.82,9.48 8.2,10.34 15.45,16.03 18.4,14.8 2.94,-1.22 4.05,-10.36 2.53,-23.47 -0.41,-3.59 -1.04,-7.45 -1.88,-11.52 -3.53,-3.06 -7.06,-6.33 -10.54,-9.81 -6.12,-6.12 -11.59,-12.42 -16.38,-18.62 1,7.77 1.58,16.09 1.58,24.75 0,4.92 -0.18,9.73 -0.52,14.39zm57.66 -42.51c4.07,0.85 7.93,1.47 11.52,1.88 13.11,1.51 22.26,0.41 23.47,-2.53 1.22,-2.95 -4.46,-10.2 -14.81,-18.4 -2.83,-2.24 -6,-4.54 -9.48,-6.81 -4.66,0.34 -9.47,0.52 -14.39,0.52 -8.66,0 -16.98,-0.58 -24.75,-1.58 6.2,4.79 12.5,10.26 18.62,16.38 3.48,3.48 6.75,7.01 9.81,10.54zm7.26 -28.06c-6.73,-4.15 -14.45,-8.18 -22.88,-11.68 -3.77,-1.56 -7.53,-2.94 -11.23,-4.16 -3.93,-1.29 -7.77,-2.38 -11.48,-3.29l0 -2.33c3.71,-0.91 7.56,-2 11.48,-3.29 3.7,-1.21 7.46,-2.6 11.23,-4.16 8.43,-3.49 16.14,-7.52 22.88,-11.68 -3.57,-0.2 -7.22,-0.3 -10.94,-0.3 -10.16,0 -19.86,0.81 -28.72,2.15 -2.43,1.78 -4.83,3.45 -7.19,5 -9.66,6.38 -18.63,10.91 -25.72,13.44 7.09,2.53 16.06,7.06 25.72,13.44 2.36,1.56 4.76,3.23 7.19,5 8.86,1.34 18.55,2.15 28.72,2.15 3.71,0 7.37,-0.11 10.94,-0.3zm3.45 -42.78c3.48,-2.28 6.65,-4.57 9.48,-6.82 10.34,-8.2 16.03,-15.45 14.81,-18.4 -1.22,-2.94 -10.36,-4.05 -23.47,-2.53 -3.59,0.41 -7.45,1.04 -11.52,1.88 -3.06,3.53 -6.33,7.06 -9.81,10.54 -6.12,6.12 -12.42,11.59 -18.62,16.38 7.77,-1 16.09,-1.58 24.75,-1.58 4.92,0 9.73,0.18 14.39,0.52z"/>
   <path class="fil1" d="M72.29 52.47c-14.12,-7.86 -25.03,-10.85 -27.85,-8.02 -2.82,2.82 0.17,13.73 8.02,27.85 6.74,12.12 17.12,26.42 30.64,39.94 7.19,7.19 14.62,13.47 21.82,18.78 7.45,1.15 14.31,2.67 20.35,4.4 6.3,1.79 11.74,3.84 16.09,5.96 -2.11,-4.35 -4.16,-9.79 -5.96,-16.09 -1.72,-6.05 -3.24,-12.9 -4.4,-20.35 -5.31,-7.21 -11.59,-14.64 -18.78,-21.82 -13.52,-13.52 -27.82,-23.9 -39.94,-30.64zm37.11 81.74c1.04,0.72 2.08,1.42 3.1,2.1 11.16,7.37 21.33,12.21 28.64,14.28l0 2.31c-7.3,2.07 -17.47,6.92 -28.64,14.28 -1.03,0.68 -2.06,1.38 -3.1,2.1 5.49,-1 10.6,-2.2 15.22,-3.52 7.74,-2.21 14.09,-4.69 18.57,-7.1 1.87,-3.25 3.76,-5.61 5.52,-6.92 -1.77,-1.31 -3.65,-3.68 -5.52,-6.93 -4.48,-2.41 -10.83,-4.89 -18.57,-7.09 -4.63,-1.32 -9.73,-2.52 -15.22,-3.52zm-4.47 38.27c-7.21,5.31 -14.64,11.59 -21.82,18.78 -13.52,13.52 -23.9,27.82 -30.64,39.94 -7.86,14.12 -10.85,25.03 -8.02,27.85 2.82,2.82 13.73,-0.17 27.85,-8.02 12.12,-6.74 26.42,-17.12 39.94,-30.64 7.19,-7.19 13.47,-14.62 18.78,-21.82 1.15,-7.45 2.67,-14.31 4.4,-20.35 1.79,-6.3 3.84,-11.74 5.96,-16.09 -4.35,2.12 -9.79,4.16 -16.09,5.96 -6.05,1.72 -12.9,3.24 -20.35,4.4zm29.28 21.61c0.72,-1.04 1.42,-2.08 2.1,-3.1 7.37,-11.16 12.21,-21.33 14.28,-28.64l2.31 0c2.07,7.3 6.92,17.47 14.28,28.64 0.68,1.03 1.38,2.06 2.1,3.1 -1,-5.49 -2.2,-10.6 -3.52,-15.22 -2.21,-7.74 -4.69,-14.09 -7.1,-18.57 -3.25,-1.87 -5.61,-3.76 -6.92,-5.52 -1.31,1.77 -3.68,3.65 -6.93,5.52 -2.41,4.48 -4.89,10.83 -7.1,18.57 -1.32,4.63 -2.52,9.73 -3.52,15.22zm21.59 -38.29c-0.72,-0.91 -1.42,-1.61 -2.09,-2.09 0.48,0.67 1.18,1.37 2.09,2.09zm-6.02 -2.09c-0.67,0.48 -1.37,1.18 -2.09,2.09 0.91,-0.72 1.61,-1.42 2.09,-2.09zm22.69 44.85c5.31,7.21 11.59,14.64 18.78,21.82 13.52,13.52 27.82,23.9 39.94,30.64 14.12,7.86 25.03,10.85 27.85,8.02 2.82,-2.82 -0.17,-13.73 -8.02,-27.85 -6.74,-12.12 -17.12,-26.42 -30.64,-39.94 -7.19,-7.19 -14.62,-13.47 -21.82,-18.78 -7.45,-1.15 -14.31,-2.67 -20.35,-4.4 -6.3,-1.8 -11.74,-3.84 -16.09,-5.96 2.12,4.35 4.16,9.79 5.96,16.09 1.72,6.05 3.24,12.9 4.4,20.35zm21.61 -29.28c-1.04,-0.72 -2.08,-1.42 -3.1,-2.1 -11.16,-7.37 -21.33,-12.21 -28.64,-14.28l0 -2.31c7.3,-2.07 17.47,-6.92 28.64,-14.28 1.03,-0.68 2.06,-1.38 3.1,-2.1 -5.49,1 -10.6,2.2 -15.22,3.52 -7.74,2.2 -14.09,4.69 -18.57,7.1 -1.87,3.25 -3.76,5.61 -5.52,6.93 1.77,1.31 3.65,3.67 5.52,6.93 4.48,2.41 10.83,4.89 18.57,7.1 4.63,1.32 9.73,2.52 15.22,3.52zm4.47 -38.27c7.21,-5.31 14.64,-11.59 21.82,-18.78 13.52,-13.52 23.9,-27.82 30.64,-39.94 7.86,-14.12 10.85,-25.03 8.02,-27.85 -2.82,-2.82 -13.73,0.17 -27.85,8.02 -12.12,6.74 -26.42,17.12 -39.94,30.64 -7.19,7.19 -13.47,14.62 -18.78,21.82 -1.15,7.45 -2.67,14.31 -4.4,20.35 -1.8,6.3 -3.84,11.74 -5.96,16.09 4.35,-2.11 9.79,-4.16 16.09,-5.96 6.05,-1.72 12.9,-3.24 20.35,-4.4zm-29.28 -21.61c-0.72,1.04 -1.42,2.08 -2.1,3.1 -7.37,11.16 -12.21,21.33 -14.28,28.64l-2.31 0c-2.07,-7.3 -6.92,-17.47 -14.28,-28.64 -0.68,-1.03 -1.38,-2.06 -2.1,-3.1 1,5.49 2.2,10.6 3.52,15.22 2.21,7.74 4.69,14.09 7.1,18.57 3.25,1.87 5.61,3.76 6.93,5.52 1.31,-1.77 3.68,-3.65 6.93,-5.52 2.41,-4.48 4.89,-10.83 7.1,-18.57 1.32,-4.63 2.52,-9.73 3.52,-15.22zm-21.59 38.29c0.72,0.91 1.42,1.61 2.09,2.09 -0.48,-0.67 -1.18,-1.37 -2.09,-2.09zm6.02 2.09c0.67,-0.48 1.37,-1.18 2.09,-2.09 -0.91,0.72 -1.61,1.42 -2.09,2.09z"/>
   <path class="fil2" d="M165.76 25.36c-4.43,-15.54 -10.03,-25.36 -14.02,-25.36 -3.99,0 -9.59,9.82 -14.02,25.36 -3.8,13.34 -6.58,30.8 -6.58,49.91 0,18.85 2.79,36.08 6.57,49.35 2.21,7.74 4.69,14.09 7.1,18.57 3.25,1.87 5.61,3.76 6.93,5.52 1.31,-1.77 3.68,-3.65 6.93,-5.52 2.41,-4.48 4.89,-10.83 7.1,-18.57 3.78,-13.27 6.57,-30.51 6.57,-49.35 0,-19.11 -2.78,-36.57 -6.58,-49.91zm-18.07 122.33c0.72,0.91 1.42,1.61 2.09,2.09 -0.48,-0.67 -1.18,-1.37 -2.09,-2.09zm6.02 2.09c0.67,-0.48 1.37,-1.18 2.09,-2.09 -0.91,0.72 -1.61,1.42 -2.09,2.09zm12.06 29.09c-2.21,-7.74 -4.69,-14.09 -7.1,-18.57 -3.25,-1.87 -5.61,-3.76 -6.92,-5.52 -1.31,1.77 -3.68,3.65 -6.93,5.52 -2.41,4.48 -4.89,10.83 -7.1,18.57 -3.78,13.27 -6.57,30.51 -6.57,49.35 0,19.11 2.78,36.57 6.58,49.91 4.43,15.54 10.02,25.36 14.02,25.36 3.99,0 9.59,-9.82 14.02,-25.36 3.8,-13.34 6.58,-30.8 6.58,-49.91 0,-18.85 -2.79,-36.08 -6.57,-49.35zm-9.97 -23.07c-0.72,-0.91 -1.42,-1.61 -2.09,-2.09 0.48,0.67 1.18,1.37 2.09,2.09zm-6.02 -2.09c-0.67,0.48 -1.37,1.18 -2.09,2.09 0.91,-0.72 1.61,-1.42 2.09,-2.09z"/>
   <path class="fil2" d="M25.36 137.73c-15.54,4.43 -25.36,10.02 -25.36,14.02 0,3.99 9.82,9.59 25.36,14.02 13.34,3.8 30.8,6.58 49.91,6.58 18.85,0 36.08,-2.79 49.35,-6.57 15.86,-4.52 25.92,-10.22 25.92,-14.02 0,-3.81 -10.06,-9.5 -25.92,-14.02 -13.27,-3.78 -30.51,-6.58 -49.35,-6.58 -19.11,0 -36.57,2.78 -49.91,6.58zm153.51 -0c-15.86,4.52 -25.92,10.22 -25.92,14.02 0,3.81 10.06,9.5 25.92,14.02 13.27,3.78 30.51,6.57 49.35,6.57 19.11,0 36.57,-2.78 49.91,-6.58 15.54,-4.43 25.36,-10.03 25.36,-14.02 0,-3.99 -9.82,-9.59 -25.36,-14.02 -13.34,-3.8 -30.8,-6.58 -49.91,-6.58 -18.85,0 -36.08,2.79 -49.35,6.58z"/>
   <path class="fil3" d="M352.11 183.58l0 -63.4 10.38 0 0 63.4 -10.38 0zm-0.27 -78.15l0 -11.48 10.38 0 0 11.48 -10.38 0zm41.31 23.57l0.18 0c1.16,-1.48 2.44,-2.82 3.85,-4.1 1.39,-1.25 2.96,-2.37 4.71,-3.32 1.73,-0.96 3.62,-1.71 5.69,-2.23 2.07,-0.52 4.33,-0.8 6.79,-0.8 2.89,0 5.6,0.41 8.13,1.21 2.55,0.8 4.74,2.09 6.6,3.87 1.87,1.78 3.35,4.1 4.44,6.97 1.09,2.87 1.64,6.38 1.64,10.57l0 42.42 -10.38 0 0 -40.76c0,-5.47 -1.05,-9.38 -3.16,-11.8 -2.09,-2.39 -5.17,-3.6 -9.22,-3.6 -3.55,0 -6.99,0.98 -10.32,2.96 -3.32,1.98 -6.19,4.69 -8.59,8.15l0 45.04 -10.38 0 0 -63.4 8.02 0 2 8.81zm69.14 23.59c0,3.64 0.41,6.95 1.23,9.91 0.84,2.96 2.03,5.46 3.58,7.54 1.57,2.07 3.48,3.67 5.76,4.78 2.28,1.12 4.9,1.66 7.83,1.66 2.19,0 4.17,-0.3 5.94,-0.87 1.78,-0.59 3.37,-1.32 4.78,-2.21 1.41,-0.89 2.62,-1.82 3.62,-2.82 1,-1 1.8,-1.94 2.37,-2.78l0 -33.18c-2.14,-2.16 -4.62,-3.92 -7.42,-5.24 -2.8,-1.3 -5.83,-1.96 -9.09,-1.96 -1.98,0 -4.03,0.36 -6.19,1.09 -2.16,0.75 -4.17,2.07 -6.01,3.98 -1.87,1.91 -3.39,4.49 -4.6,7.7 -1.21,3.23 -1.8,7.36 -1.8,12.39zm-10.79 0.09c0,-4.4 0.43,-8.29 1.3,-11.7 0.87,-3.39 2.03,-6.35 3.44,-8.9 1.43,-2.53 3.1,-4.65 5.01,-6.35 1.94,-1.71 3.92,-3.1 5.97,-4.17 2.05,-1.07 4.12,-1.84 6.24,-2.3 2.12,-0.48 4.1,-0.71 5.99,-0.71 3.87,0 7.24,0.64 10.09,1.94 2.85,1.3 5.4,3.19 7.67,5.67l0.2 0 0 -39.17 10.38 0 0 96.6 -7.83 0 -2.14 -7.08 -0.27 0c-0.8,1.02 -1.75,2.07 -2.8,3.12 -1.07,1.05 -2.35,1.98 -3.78,2.82 -1.46,0.84 -3.12,1.53 -5.01,2.03 -1.89,0.5 -4.1,0.75 -6.58,0.75 -3.48,0 -6.9,-0.59 -10.22,-1.78 -3.35,-1.16 -6.33,-3.05 -8.93,-5.65 -2.6,-2.62 -4.71,-5.97 -6.31,-10.09 -1.62,-4.1 -2.41,-9.11 -2.41,-15.03zm77.56 30.9l0 -63.4 10.38 0 0 63.4 -10.38 0zm-0.27 -78.15l0 -11.48 10.38 0 0 11.48 -10.38 0zm38.39 46.89c0,4.99 0.59,9.06 1.8,12.21 1.21,3.16 2.73,5.62 4.6,7.38 1.84,1.75 3.85,2.96 6.03,3.6 2.19,0.66 4.26,0.98 6.22,0.98 3.21,0 6.24,-0.66 9.04,-1.96 2.8,-1.3 5.28,-3.07 7.42,-5.31l0 -33.16c-0.57,-0.8 -1.39,-1.71 -2.41,-2.71 -1.02,-1.02 -2.21,-1.96 -3.58,-2.82 -1.37,-0.87 -2.91,-1.59 -4.64,-2.21 -1.73,-0.59 -3.64,-0.89 -5.69,-0.89 -3.07,0 -5.78,0.61 -8.13,1.84 -2.32,1.21 -4.28,2.91 -5.88,5.1 -1.57,2.19 -2.78,4.78 -3.58,7.83 -0.8,3.05 -1.21,6.42 -1.21,10.11zm17.49 -33.77c2.76,0.05 5.17,0.39 7.22,1.07 2.05,0.66 3.8,1.48 5.28,2.48 1.46,1 2.64,1.98 3.51,2.96 0.87,0.98 1.46,1.75 1.78,2.32l0.27 0 2.14 -7.2 7.81 0 0 67.11c0,4.9 -0.8,9.15 -2.41,12.78 -1.59,3.62 -3.85,6.63 -6.74,9.04 -2.91,2.39 -6.4,4.19 -10.48,5.35 -4.08,1.18 -8.59,1.78 -13.55,1.78 -4.19,0 -7.92,-0.36 -11.23,-1.09 -3.3,-0.73 -5.88,-1.62 -7.74,-2.62l0 -8.72c1.5,0.61 2.98,1.14 4.39,1.55 1.43,0.41 2.89,0.75 4.42,1.05 1.5,0.27 3.05,0.5 4.65,0.61 1.57,0.14 3.32,0.2 5.24,0.2 7.45,0 13.16,-1.73 17.12,-5.19 3.96,-3.48 5.94,-8.77 5.94,-15.87l0 -8.47 -0.2 0c-2.28,2.48 -4.9,4.37 -7.92,5.65 -3.01,1.25 -6.45,1.89 -10.32,1.89 -1.78,0 -3.69,-0.2 -5.74,-0.59 -2.05,-0.41 -4.1,-1.09 -6.15,-2.05 -2.05,-0.96 -4.01,-2.21 -5.9,-3.8 -1.87,-1.57 -3.51,-3.55 -4.94,-5.92 -1.41,-2.39 -2.57,-5.19 -3.44,-8.45 -0.87,-3.23 -1.3,-6.99 -1.3,-11.25 0,-5.92 0.8,-11.04 2.41,-15.37 1.59,-4.35 3.71,-7.92 6.35,-10.77 2.62,-2.85 5.62,-4.96 9.02,-6.38 3.39,-1.39 6.88,-2.1 10.5,-2.1zm48.62 65.04l0 -63.4 10.38 0 0 63.4 -10.38 0zm-0.27 -78.15l0 -11.48 10.38 0 0 11.48 -10.38 0zm41.31 23.57l0.18 0c1.16,-1.48 2.44,-2.82 3.85,-4.1 1.39,-1.25 2.96,-2.37 4.71,-3.32 1.73,-0.96 3.62,-1.71 5.69,-2.23 2.07,-0.52 4.33,-0.8 6.79,-0.8 2.89,0 5.6,0.41 8.13,1.21 2.55,0.8 4.74,2.09 6.6,3.87 1.87,1.78 3.35,4.1 4.44,6.97 1.09,2.87 1.64,6.38 1.64,10.57l0 42.42 -10.38 0 0 -40.76c0,-5.47 -1.05,-9.38 -3.16,-11.8 -2.09,-2.39 -5.17,-3.6 -9.22,-3.6 -3.55,0 -6.99,0.98 -10.32,2.96 -3.32,1.98 -6.19,4.69 -8.59,8.15l0 45.04 -10.38 0 0 -63.4 8.02 0 2 8.81z"/>
   <path class="fil4" d="M361.84 208.22l-4.56 0 0 -3.11 8.3 0 0 10.27c-0.31,0.11 -0.69,0.23 -1.16,0.35 -0.47,0.12 -1,0.23 -1.58,0.33 -0.58,0.1 -1.18,0.18 -1.8,0.23 -0.62,0.06 -1.23,0.09 -1.84,0.09 -1.83,0 -3.42,-0.24 -4.78,-0.74 -1.36,-0.49 -2.5,-1.18 -3.4,-2.08 -0.91,-0.89 -1.59,-1.96 -2.04,-3.19 -0.45,-1.23 -0.67,-2.59 -0.67,-4.08 0,-1.05 0.12,-2.06 0.36,-3.02 0.24,-0.96 0.59,-1.85 1.05,-2.66 0.46,-0.82 1.03,-1.55 1.69,-2.21 0.66,-0.66 1.42,-1.22 2.26,-1.69 0.85,-0.46 1.77,-0.82 2.78,-1.07 1.01,-0.25 2.09,-0.37 3.24,-0.37 1.02,0 2,0.07 2.92,0.22 0.92,0.15 1.68,0.33 2.26,0.53l0 3.14c-0.79,-0.24 -1.59,-0.43 -2.39,-0.56 -0.8,-0.13 -1.62,-0.19 -2.44,-0.19 -1.11,0 -2.14,0.17 -3.1,0.49 -0.97,0.33 -1.8,0.82 -2.5,1.46 -0.71,0.64 -1.26,1.44 -1.67,2.38 -0.4,0.94 -0.61,2.03 -0.61,3.27 0.01,2.4 0.64,4.21 1.88,5.41 1.25,1.2 3,1.8 5.29,1.8 0.43,0 0.87,-0.02 1.32,-0.07 0.46,-0.05 0.86,-0.1 1.2,-0.18l0 -4.77zm45.6 -6.44c0,1.42 -0.39,2.62 -1.18,3.61 -0.78,0.99 -2,1.72 -3.64,2.19l0 0.06 6.1 8.37 -4.48 0 -5.54 -7.88 -2.56 0 0 7.88 -3.74 0 0 -20.33 6.18 0c1.03,0 1.98,0.06 2.86,0.18 0.88,0.11 1.63,0.29 2.26,0.52 1.19,0.45 2.12,1.13 2.77,2.02 0.65,0.9 0.97,2.02 0.97,3.38zm-9.47 3.23c0.85,0 1.57,-0.04 2.16,-0.11 0.59,-0.08 1.09,-0.19 1.49,-0.34 0.75,-0.28 1.27,-0.67 1.56,-1.16 0.29,-0.49 0.43,-1.05 0.43,-1.69 0,-0.54 -0.11,-1.03 -0.34,-1.45 -0.23,-0.42 -0.61,-0.75 -1.16,-0.99 -0.35,-0.17 -0.8,-0.28 -1.33,-0.36 -0.53,-0.08 -1.2,-0.11 -1.99,-0.11l-2.65 0 0 6.23 1.83 0zm51.32 0.81c0,-1.24 -0.15,-2.32 -0.46,-3.25 -0.3,-0.93 -0.72,-1.7 -1.26,-2.32 -0.53,-0.62 -1.17,-1.08 -1.91,-1.39 -0.74,-0.31 -1.55,-0.46 -2.43,-0.46 -0.88,0 -1.69,0.15 -2.43,0.46 -0.74,0.31 -1.38,0.77 -1.91,1.39 -0.54,0.62 -0.96,1.39 -1.26,2.32 -0.31,0.93 -0.46,2.01 -0.46,3.25 0,1.23 0.15,2.32 0.46,3.25 0.3,0.93 0.72,1.7 1.26,2.31 0.53,0.61 1.17,1.07 1.91,1.39 0.74,0.31 1.55,0.46 2.43,0.46 0.88,0 1.69,-0.16 2.43,-0.46 0.74,-0.31 1.38,-0.77 1.91,-1.39 0.54,-0.62 0.96,-1.39 1.26,-2.31 0.31,-0.93 0.46,-2.01 0.46,-3.25zm3.86 0c0,1.55 -0.22,2.97 -0.66,4.27 -0.44,1.29 -1.09,2.41 -1.94,3.34 -0.85,0.93 -1.88,1.66 -3.12,2.18 -1.23,0.51 -2.63,0.77 -4.2,0.77 -1.57,0 -2.97,-0.26 -4.2,-0.77 -1.24,-0.52 -2.27,-1.25 -3.12,-2.18 -0.85,-0.93 -1.49,-2.04 -1.93,-3.34 -0.44,-1.29 -0.66,-2.71 -0.66,-4.27 0,-1.55 0.22,-2.97 0.66,-4.27 0.44,-1.29 1.08,-2.41 1.93,-3.34 0.85,-0.93 1.88,-1.66 3.12,-2.18 1.23,-0.51 2.63,-0.77 4.2,-0.77 1.57,0 2.97,0.26 4.2,0.77 1.24,0.52 2.27,1.25 3.12,2.18 0.85,0.93 1.49,2.04 1.94,3.34 0.44,1.29 0.66,2.71 0.66,4.27zm34.64 10.56c-1.06,0 -2.02,-0.1 -2.87,-0.31 -0.85,-0.21 -1.6,-0.51 -2.25,-0.9 -0.65,-0.39 -1.2,-0.87 -1.66,-1.43 -0.46,-0.56 -0.82,-1.2 -1.09,-1.9 -0.22,-0.57 -0.38,-1.2 -0.48,-1.88 -0.1,-0.69 -0.15,-1.46 -0.15,-2.31l0 -11.97 3.74 0 0 11.64c0,1.44 0.17,2.56 0.51,3.37 0.39,0.9 0.95,1.55 1.69,1.95 0.74,0.4 1.61,0.6 2.61,0.6 1,0 1.87,-0.2 2.61,-0.6 0.74,-0.4 1.3,-1.05 1.69,-1.95 0.34,-0.81 0.51,-1.94 0.51,-3.37l0 -11.64 3.74 0 0 11.97c0,0.85 -0.05,1.62 -0.15,2.31 -0.09,0.68 -0.25,1.31 -0.48,1.88 -0.27,0.71 -0.64,1.34 -1.11,1.9 -0.46,0.56 -1.02,1.04 -1.69,1.43 -0.66,0.39 -1.43,0.69 -2.29,0.9 -0.86,0.21 -1.83,0.31 -2.89,0.31zm41.26 -8.25c-0.33,0 -0.66,-0 -0.99,-0.02 -0.33,-0.01 -0.63,-0.03 -0.91,-0.06l0 7.96 -3.74 0 0 -20.33 5.88 0c0.98,0 1.84,0.04 2.58,0.13 0.73,0.08 1.39,0.21 1.97,0.38 1.39,0.43 2.46,1.11 3.21,2.04 0.75,0.93 1.13,2.11 1.13,3.55 0,0.98 -0.2,1.86 -0.61,2.65 -0.4,0.79 -1,1.45 -1.78,2 -0.78,0.55 -1.73,0.97 -2.86,1.26 -1.13,0.3 -2.42,0.44 -3.88,0.44zm-1.9 -3.21c0.21,0.03 0.48,0.06 0.81,0.07 0.33,0.02 0.67,0.02 1.03,0.02 1,0 1.84,-0.08 2.52,-0.24 0.68,-0.16 1.22,-0.38 1.64,-0.67 0.42,-0.29 0.71,-0.64 0.89,-1.05 0.18,-0.41 0.27,-0.86 0.27,-1.34 0,-0.6 -0.14,-1.12 -0.41,-1.55 -0.27,-0.44 -0.75,-0.77 -1.43,-1.02 -0.35,-0.12 -0.79,-0.21 -1.31,-0.26 -0.52,-0.06 -1.16,-0.08 -1.92,-0.08l-2.1 0 0 6.13z"/>
  </g>
 </g>
</svg>
